<svg width="532" height="661" viewBox="0 0 532 661" fill="none" xmlns="http://www.w3.org/2000/svg">
<path d="M411.795 443.289C411.795 411.986 438.606 386.61 471.68 386.61C504.754 386.61 531.565 411.986 531.565 443.289V569.619C531.565 600.922 504.754 626.298 471.68 626.298C438.606 626.298 411.795 600.922 411.795 569.619V443.289Z" fill="#CD7434"/>
<path d="M411.795 443.289C411.795 411.986 438.606 386.61 471.68 386.61C504.754 386.61 531.565 411.986 531.565 443.289V569.619C531.565 600.922 504.754 626.298 471.68 626.298C438.606 626.298 411.795 600.922 411.795 569.619V443.289Z" fill="#CD7434"/>
<path d="M411.795 443.289C411.795 411.986 438.606 386.61 471.68 386.61C504.754 386.61 531.565 411.986 531.565 443.289V569.619C531.565 600.922 504.754 626.298 471.68 626.298C438.606 626.298 411.795 600.922 411.795 569.619V443.289Z" fill="#CD7434"/>
<path d="M411.795 443.289C411.795 411.986 438.606 386.61 471.68 386.61C504.754 386.61 531.565 411.986 531.565 443.289V569.619C531.565 600.922 504.754 626.298 471.68 626.298C438.606 626.298 411.795 600.922 411.795 569.619V443.289Z" fill="#B5551F"/>
<mask id="mask0_88_641" style="mask-type:alpha" maskUnits="userSpaceOnUse" x="411" y="386" width="121" height="241">
<path d="M531.566 443.289C531.566 411.986 504.755 386.61 471.681 386.61C438.607 386.61 411.796 411.986 411.796 443.289V569.619C411.796 600.922 438.607 626.298 471.681 626.298C504.755 626.298 531.566 600.922 531.566 569.619V443.289Z" fill="#703514"/>
<path d="M531.566 443.289C531.566 411.986 504.755 386.61 471.681 386.61C438.607 386.61 411.796 411.986 411.796 443.289V569.619C411.796 600.922 438.607 626.298 471.681 626.298C504.755 626.298 531.566 600.922 531.566 569.619V443.289Z" fill="#703514"/>
<path d="M531.566 443.289C531.566 411.986 504.755 386.61 471.681 386.61C438.607 386.61 411.796 411.986 411.796 443.289V569.619C411.796 600.922 438.607 626.298 471.681 626.298C504.755 626.298 531.566 600.922 531.566 569.619V443.289Z" fill="#703514"/>
<path d="M531.566 443.289C531.566 411.986 504.755 386.61 471.681 386.61C438.607 386.61 411.796 411.986 411.796 443.289V569.619C411.796 600.922 438.607 626.298 471.681 626.298C504.755 626.298 531.566 600.922 531.566 569.619V443.289Z" fill="#582508"/>
</mask>
<g mask="url(#mask0_88_641)">
<path fill-rule="evenodd" clip-rule="evenodd" d="M510.04 597.672C509.21 598.661 509.384 600.099 510.428 600.885L517.994 606.575C519.038 607.36 520.558 607.196 521.388 606.207C522.218 605.218 522.044 603.78 521 602.995L513.434 597.305C512.39 596.519 510.87 596.683 510.04 597.672Z" fill="#F59F9F"/>
<path fill-rule="evenodd" clip-rule="evenodd" d="M489.175 612.58C487.941 613.062 487.354 614.398 487.863 615.566L491.549 624.02C492.058 625.187 493.47 625.743 494.704 625.261C495.937 624.78 496.524 623.443 496.015 622.276L492.329 613.821C491.82 612.654 490.408 612.098 489.175 612.58Z" fill="#F59F9F"/>
<path fill-rule="evenodd" clip-rule="evenodd" d="M462.529 614.866C461.195 614.866 460.113 615.889 460.113 617.152L460.113 626.298C460.113 627.561 461.195 628.584 462.529 628.584C463.863 628.584 464.945 627.561 464.945 626.298L464.945 617.152C464.945 615.889 463.863 614.866 462.529 614.866Z" fill="#F59F9F"/>
</g>
<path d="M0.214844 443.289C0.214844 411.986 27.0264 386.61 60.1001 386.61C93.1738 386.61 119.985 411.986 119.985 443.289V569.619C119.985 600.922 93.1738 626.298 60.1001 626.298C27.0264 626.298 0.214844 600.922 0.214844 569.619V443.289Z" fill="#CD7434"/>
<path d="M0.214844 443.289C0.214844 411.986 27.0264 386.61 60.1001 386.61C93.1738 386.61 119.985 411.986 119.985 443.289V569.619C119.985 600.922 93.1738 626.298 60.1001 626.298C27.0264 626.298 0.214844 600.922 0.214844 569.619V443.289Z" fill="#CD7434"/>
<path d="M0.214844 443.289C0.214844 411.986 27.0264 386.61 60.1001 386.61C93.1738 386.61 119.985 411.986 119.985 443.289V569.619C119.985 600.922 93.1738 626.298 60.1001 626.298C27.0264 626.298 0.214844 600.922 0.214844 569.619V443.289Z" fill="#CD7434"/>
<path d="M0.214844 443.289C0.214844 411.986 27.0264 386.61 60.1001 386.61C93.1738 386.61 119.985 411.986 119.985 443.289V569.619C119.985 600.922 93.1738 626.298 60.1001 626.298C27.0264 626.298 0.214844 600.922 0.214844 569.619V443.289Z" fill="#B5551F"/>
<mask id="mask1_88_641" style="mask-type:alpha" maskUnits="userSpaceOnUse" x="0" y="386" width="120" height="241">
<path d="M0.214844 443.289C0.214844 411.986 27.0264 386.61 60.1001 386.61C93.1738 386.61 119.985 411.986 119.985 443.289V569.619C119.985 600.922 93.1738 626.298 60.1001 626.298C27.0264 626.298 0.214844 600.922 0.214844 569.619V443.289Z" fill="#703514"/>
<path d="M0.214844 443.289C0.214844 411.986 27.0264 386.61 60.1001 386.61C93.1738 386.61 119.985 411.986 119.985 443.289V569.619C119.985 600.922 93.1738 626.298 60.1001 626.298C27.0264 626.298 0.214844 600.922 0.214844 569.619V443.289Z" fill="#703514"/>
<path d="M0.214844 443.289C0.214844 411.986 27.0264 386.61 60.1001 386.61C93.1738 386.61 119.985 411.986 119.985 443.289V569.619C119.985 600.922 93.1738 626.298 60.1001 626.298C27.0264 626.298 0.214844 600.922 0.214844 569.619V443.289Z" fill="#703514"/>
<path d="M0.214844 443.289C0.214844 411.986 27.0264 386.61 60.1001 386.61C93.1738 386.61 119.985 411.986 119.985 443.289V569.619C119.985 600.922 93.1738 626.298 60.1001 626.298C27.0264 626.298 0.214844 600.922 0.214844 569.619V443.289Z" fill="#582508"/>
</mask>
<g mask="url(#mask1_88_641)">
<path fill-rule="evenodd" clip-rule="evenodd" d="M21.7412 597.672C22.5712 598.661 22.3974 600.099 21.3528 600.885L13.7875 606.575C12.743 607.36 11.2233 607.196 10.3932 606.207C9.56316 605.218 9.73704 603.78 10.7816 602.995L18.3469 597.305C19.3914 596.519 20.9111 596.683 21.7412 597.672Z" fill="#F59F9F"/>
<path fill-rule="evenodd" clip-rule="evenodd" d="M42.6028 612.58C43.8361 613.062 44.4234 614.398 43.9144 615.566L40.2284 624.02C39.7195 625.187 38.3071 625.743 37.0738 625.261C35.8405 624.78 35.2532 623.443 35.7622 622.276L39.4482 613.821C39.9571 612.654 41.3695 612.098 42.6028 612.58Z" fill="#F59F9F"/>
<path fill-rule="evenodd" clip-rule="evenodd" d="M69.2502 614.866C70.5844 614.866 71.666 615.889 71.666 617.152L71.666 626.298C71.666 627.561 70.5844 628.584 69.2502 628.584C67.916 628.584 66.8344 627.561 66.8344 626.298L66.8344 617.152C66.8344 615.889 67.916 614.866 69.2502 614.866Z" fill="#F59F9F"/>
</g>
<path d="M219 50.9281C219 78.8185 195.047 101.428 165.5 101.428C135.953 101.428 112 78.8185 112 50.9281C112 23.0377 135.953 0.428101 165.5 0.428101C195.047 0.428101 219 23.0377 219 50.9281Z" fill="#FFA7A7"/>
<path d="M219 50.9281C219 78.8185 195.047 101.428 165.5 101.428C135.953 101.428 112 78.8185 112 50.9281C112 23.0377 135.953 0.428101 165.5 0.428101C195.047 0.428101 219 23.0377 219 50.9281Z" fill="#CD7434"/>
<path d="M419 50.9282C419 78.8186 395.047 101.428 365.5 101.428C335.953 101.428 312 78.8186 312 50.9282C312 23.0378 335.953 0.428223 365.5 0.428223C395.047 0.428223 419 23.0378 419 50.9282Z" fill="#FFA7A7"/>
<path d="M419 50.9282C419 78.8186 395.047 101.428 365.5 101.428C335.953 101.428 312 78.8186 312 50.9282C312 23.0378 335.953 0.428223 365.5 0.428223C395.047 0.428223 419 23.0378 419 50.9282Z" fill="#CD7434"/>
<path d="M196 51.4282C196 66.8922 182.569 79.4282 166 79.4282C149.431 79.4282 136 66.8922 136 51.4282C136 35.9642 149.431 23.4282 166 23.4282C182.569 23.4282 196 35.9642 196 51.4282Z" fill="#FFA7A7"/>
<path d="M196 51.4282C196 66.8922 182.569 79.4282 166 79.4282C149.431 79.4282 136 66.8922 136 51.4282C136 35.9642 149.431 23.4282 166 23.4282C182.569 23.4282 196 35.9642 196 51.4282Z" fill="#FAB7B7"/>
<path d="M396 51.4282C396 66.8922 382.569 79.4282 366 79.4282C349.431 79.4282 336 66.8922 336 51.4282C336 35.9642 349.431 23.4282 366 23.4282C382.569 23.4282 396 35.9642 396 51.4282Z" fill="#FFA7A7"/>
<path d="M396 51.4282C396 66.8922 382.569 79.4282 366 79.4282C349.431 79.4282 336 66.8922 336 51.4282C336 35.9642 349.431 23.4282 366 23.4282C382.569 23.4282 396 35.9642 396 51.4282Z" fill="#FAB7B7"/>
<path d="M531.452 435.838C531.452 378.603 535.408 349.384 522.056 296.506C491.23 214.183 464.17 192.9 439.5 152.428C414.83 111.957 406.032 92.7815 363.074 41.7976C325.574 8.6214 300.666 -2.50183e-06 265.777 0C230.888 2.50183e-06 204.135 8.62138 168.74 41.7976C116.982 101.192 114 119.928 92 151.428C70 182.928 27.1651 234.417 11.4882 296.506C-1.86327 349.384 0.101603 378.603 0.101606 435.838L265.777 435.838H531.452Z" fill="#CD7434"/>
<path d="M305.524 117.56C305.524 138.507 287.583 155.488 265.451 155.488C243.319 155.488 225.377 138.507 225.377 117.56C225.377 96.6127 243.319 79.6317 265.451 79.6317C287.583 79.6317 305.524 96.6127 305.524 117.56Z" fill="#BC6618"/>
<path fill-rule="evenodd" clip-rule="evenodd" d="M241.15 116.163C241.15 117.543 241.437 118.91 241.995 120.185C242.553 121.46 243.371 122.618 244.402 123.594C245.433 124.57 246.657 125.344 248.004 125.872C249.351 126.4 250.795 126.672 252.253 126.672C253.711 126.672 255.155 126.4 256.502 125.872C257.849 125.344 259.073 124.57 260.104 123.594C261.135 122.618 261.953 121.46 262.511 120.185C263.069 118.91 263.356 117.543 263.356 116.163H268.187C268.187 118.144 267.775 120.105 266.975 121.935C266.174 123.765 265 125.427 263.52 126.828C262.041 128.228 260.284 129.339 258.351 130.097C256.418 130.855 254.345 131.245 252.253 131.245C250.16 131.245 248.088 130.855 246.155 130.097C244.222 129.339 242.465 128.228 240.985 126.828C239.506 125.427 238.332 123.765 237.531 121.935C236.731 120.105 236.318 118.144 236.318 116.163H241.15Z" fill="black"/>
<path d="M281.711 93.26C281.711 95.2405 281.299 97.2017 280.498 99.0314C279.697 100.861 278.523 102.524 277.044 103.924C275.564 105.325 273.808 106.436 271.874 107.193C269.941 107.951 267.869 108.341 265.776 108.341C263.684 108.341 261.612 107.951 259.678 107.193C257.745 106.436 255.989 105.325 254.509 103.924C253.029 102.524 251.856 100.861 251.055 99.0314C250.254 97.2017 249.842 95.2405 249.842 93.26L265.776 93.26H281.711Z" fill="black"/>
<path fill-rule="evenodd" clip-rule="evenodd" d="M273.627 100.691C274.508 99.8575 275.233 98.8912 275.773 97.8329L255.78 97.8329C256.32 98.8912 257.045 99.8575 257.925 100.691C258.956 101.666 260.18 102.441 261.527 102.969C262.874 103.497 264.318 103.769 265.776 103.769C267.234 103.769 268.678 103.497 270.025 102.969C271.372 102.441 272.596 101.666 273.627 100.691ZM250.592 97.8329C250.096 96.3566 249.842 94.8143 249.842 93.26L281.711 93.26C281.711 94.8143 281.457 96.3566 280.961 97.8329C280.825 98.2377 280.67 98.6376 280.498 99.0314C279.697 100.861 278.523 102.524 277.044 103.924C275.564 105.325 273.808 106.436 271.874 107.193C269.941 107.951 267.869 108.341 265.776 108.341C263.684 108.341 261.612 107.951 259.678 107.193C257.745 106.436 255.989 105.325 254.509 103.924C253.029 102.524 251.856 100.861 251.055 99.0314C250.882 98.6376 250.728 98.2377 250.592 97.8329Z" fill="black"/>
<path fill-rule="evenodd" clip-rule="evenodd" d="M268.199 116.163C268.199 117.543 268.486 118.91 269.044 120.185C269.602 121.46 270.42 122.618 271.451 123.594C272.482 124.57 273.706 125.344 275.053 125.872C276.4 126.4 277.844 126.672 279.302 126.672C280.76 126.672 282.204 126.4 283.551 125.872C284.898 125.344 286.122 124.57 287.153 123.594C288.184 122.618 289.002 121.46 289.56 120.185C290.118 118.91 290.405 117.543 290.405 116.163H295.236C295.236 118.144 294.824 120.105 294.023 121.935C293.223 123.765 292.049 125.427 290.569 126.828C289.09 128.228 287.333 129.339 285.4 130.097C283.466 130.855 281.394 131.245 279.302 131.245C277.209 131.245 275.137 130.855 273.204 130.097C271.271 129.339 269.514 128.228 268.034 126.828C266.555 125.427 265.381 123.765 264.58 121.935C263.779 120.105 263.367 118.144 263.367 116.163H268.199Z" fill="black"/>
<path d="M0.214844 371.833C0.214844 276.543 88.9047 180.005 198.309 180.005H333.472C442.876 180.005 531.566 276.543 531.566 371.833V418.172C531.566 513.461 442.876 590.709 333.472 590.709H198.309C88.9047 590.709 0.214844 513.461 0.214844 418.172V371.833Z" fill="#CD7434"/>
<path d="M68.7793 389.744C68.7793 292.672 173.559 209.699 270.06 209.699C366.561 209.699 462.568 292.672 462.568 389.744V428.321C462.568 504.087 401.509 565.507 326.188 565.507H205.16C129.839 565.507 68.7793 504.087 68.7793 428.321V389.744Z" fill="#E6C29D"/>
<path d="M68.7793 389.744C68.7793 292.672 173.559 209.699 270.06 209.699C366.561 209.699 462.568 292.672 462.568 389.744V428.321C462.568 504.087 401.509 565.507 326.188 565.507H205.16C129.839 565.507 68.7793 504.087 68.7793 428.321V389.744Z" fill="url(#paint0_linear_88_641)" fill-opacity="0.2"/>
<path d="M320.949 130.902C320.949 163.197 294.769 189.377 262.474 189.377C230.18 189.377 204 163.197 204 130.902C204 98.608 230.18 72.4281 262.474 72.4281C294.769 72.4281 320.949 98.608 320.949 130.902Z" fill="#E5C29D"/>
<path d="M285.243 101.428C285.243 104.482 284.641 107.505 283.473 110.326C282.304 113.147 280.592 115.71 278.433 117.869C276.274 120.028 273.71 121.741 270.889 122.909C268.068 124.078 265.045 124.679 261.992 124.679C258.938 124.679 255.915 124.078 253.094 122.909C250.273 121.741 247.709 120.028 245.55 117.869C243.391 115.71 241.679 113.147 240.51 110.326C239.342 107.505 238.74 104.482 238.74 101.428L261.992 101.428H285.243Z" fill="black"/>
<path fill-rule="evenodd" clip-rule="evenodd" d="M265.504 112.233L265.497 145.008L258.447 145.006L258.454 112.232L265.504 112.233Z" fill="black"/>
<path d="M203 105.428C203 117.578 193.15 127.428 181 127.428C168.85 127.428 159 117.578 159 105.428C159 93.2778 168.85 83.4281 181 83.4281C193.15 83.4281 203 93.2778 203 105.428Z" fill="black"/>
<path d="M366 105.428C366 117.578 356.15 127.428 344 127.428C331.85 127.428 322 117.578 322 105.428C322 93.2778 331.85 83.4281 344 83.4281C356.15 83.4281 366 93.2778 366 105.428Z" fill="black"/>
<circle cx="139.5" cy="547.928" r="112.5" fill="#CD7434"/>
<circle cx="378.5" cy="544.928" r="112.5" fill="#CD7434"/>
<defs>
<linearGradient id="paint0_linear_88_641" x1="265.674" y1="209.699" x2="265.674" y2="565.507" gradientUnits="userSpaceOnUse">
<stop stop-color="white"/>
<stop offset="1" stop-color="#F5F5F5" stop-opacity="0"/>
</linearGradient>
</defs>
</svg>
